<svg width="98" height="95" xmlns="http://www.w3.org/2000/svg">

 <g>
  <title>background</title>
  <rect fill="none" id="canvas_background" height="97" width="100" y="-1" x="-1"/>
 </g>
 <g>
  <title>Layer 1</title>
  <path id="svg_47" d="m9.952995,21.566759c-8.082,11.616 -7.075,26.728 -0.902,39.071c0.147,0.296 0.301,0.587 0.453,0.879c0.097,0.184 0.188,0.373 0.289,0.555c0.057,0.109 0.121,0.216 0.18,0.32c0.105,0.197 0.213,0.384 0.322,0.576c0.192,0.338 0.389,0.674 0.589,1.01c0.111,0.185 0.221,0.369 0.336,0.554c0.223,0.359 0.451,0.716 0.684,1.07c0.097,0.151 0.192,0.303 0.292,0.449c0.322,0.48 0.651,0.96 0.99,1.431c0.009,0.012 0.019,0.024 0.028,0.036c0.054,0.076 0.113,0.15 0.167,0.226c0.293,0.405 0.597,0.805 0.902,1.201c0.113,0.144 0.227,0.288 0.34,0.433c0.273,0.344 0.551,0.685 0.834,1.025c0.106,0.127 0.212,0.255 0.319,0.38c0.379,0.446 0.767,0.892 1.163,1.328c0.007,0.008 0.016,0.017 0.023,0.024c0.016,0.019 0.03,0.03 0.044,0.048c0.386,0.422 0.781,0.835 1.182,1.247c0.124,0.127 0.251,0.255 0.378,0.382c0.31,0.312 0.625,0.617 0.943,0.925c0.129,0.122 0.257,0.248 0.386,0.366c0.425,0.4 0.854,0.793 1.292,1.176c0.008,0.008 0.013,0.014 0.021,0.017c0.074,0.066 0.151,0.13 0.225,0.191c0.386,0.335 0.779,0.667 1.174,0.993c0.161,0.13 0.324,0.259 0.486,0.388c0.323,0.259 0.65,0.514 0.979,0.765c0.174,0.133 0.348,0.266 0.523,0.398c0.363,0.266 0.729,0.53 1.098,0.787c0.135,0.098 0.265,0.191 0.4,0.284c0.037,0.026 0.071,0.054 0.109,0.079c0.351,0.24 0.708,0.474 1.066,0.705c0.154,0.103 0.307,0.208 0.462,0.308c0.549,0.347 1.106,0.69 1.67,1.023c0.153,0.087 0.308,0.173 0.461,0.26c0.414,0.239 0.831,0.474 1.253,0.703c0.228,0.123 0.463,0.239 0.693,0.356c0.299,0.157 0.595,0.315 0.897,0.466c0.069,0.035 0.14,0.068 0.208,0.101c0.121,0.059 0.244,0.116 0.367,0.178c0.47,0.225 0.943,0.444 1.421,0.658c0.102,0.045 0.2,0.09 0.301,0.134c0.547,0.239 1.1,0.471 1.658,0.69c0.134,0.054 0.269,0.105 0.404,0.159c0.516,0.198 1.039,0.395 1.564,0.579c0.067,0.023 0.131,0.045 0.197,0.067c0.577,0.202 1.159,0.389 1.745,0.571c0.14,0.041 0.28,0.086 0.421,0.127c0.597,0.18 1.186,0.394 1.802,0.508c39.084,7.127 50.437,-23.487 50.437,-23.487c-9.535,12.422 -26.46,15.699 -42.496,12.051c-0.608,-0.137 -1.197,-0.326 -1.79,-0.502c-0.151,-0.045 -0.298,-0.09 -0.447,-0.136c-0.579,-0.178 -1.152,-0.364 -1.723,-0.561c-0.078,-0.027 -0.157,-0.057 -0.237,-0.085c-0.511,-0.18 -1.016,-0.369 -1.52,-0.563c-0.142,-0.057 -0.284,-0.11 -0.426,-0.167c-0.552,-0.218 -1.1,-0.445 -1.641,-0.683c-0.112,-0.047 -0.218,-0.097 -0.328,-0.146c-0.465,-0.21 -0.925,-0.422 -1.385,-0.643c-0.132,-0.064 -0.265,-0.127 -0.399,-0.192c-0.359,-0.175 -0.716,-0.361 -1.07,-0.544c-0.238,-0.125 -0.479,-0.244 -0.714,-0.374c-0.434,-0.232 -0.859,-0.474 -1.283,-0.72c-0.144,-0.081 -0.289,-0.158 -0.434,-0.241c-0.563,-0.332 -1.12,-0.676 -1.671,-1.024c-0.152,-0.097 -0.301,-0.2 -0.451,-0.3c-0.399,-0.258 -0.797,-0.52 -1.188,-0.791c-0.13,-0.086 -0.256,-0.182 -0.383,-0.269c-0.378,-0.267 -0.752,-0.538 -1.124,-0.812c-0.168,-0.124 -0.334,-0.253 -0.498,-0.377c-0.34,-0.261 -0.679,-0.522 -1.014,-0.793c-0.151,-0.12 -0.303,-0.241 -0.452,-0.362c-0.426,-0.351 -0.847,-0.702 -1.263,-1.063c-0.043,-0.039 -0.091,-0.076 -0.138,-0.116c-0.449,-0.396 -0.892,-0.801 -1.328,-1.208c-0.127,-0.121 -0.25,-0.238 -0.374,-0.36c-0.324,-0.307 -0.642,-0.617 -0.954,-0.935c-0.125,-0.125 -0.251,-0.249 -0.374,-0.373c-0.398,-0.408 -0.788,-0.82 -1.171,-1.239c-0.019,-0.021 -0.039,-0.039 -0.058,-0.062c-0.405,-0.442 -0.8,-0.895 -1.188,-1.352c-0.105,-0.125 -0.207,-0.246 -0.311,-0.369c-0.289,-0.348 -0.575,-0.7 -0.854,-1.057c-0.105,-0.127 -0.21,-0.259 -0.314,-0.39c-0.336,-0.437 -0.665,-0.871 -0.987,-1.314c-8.903,-12.144 -12.102,-28.894 -4.986,-42.649"/>
  <path id="svg_48" d="m35.039995,11.780759c-5.845,8.411 -5.527,19.669 -0.968,28.564c0.765,1.491 1.624,2.938 2.585,4.315c0.875,1.255 1.846,2.748 3.008,3.756c0.422,0.464 0.862,0.917 1.312,1.361c0.114,0.117 0.23,0.228 0.346,0.343c0.436,0.422 0.88,0.839 1.339,1.243c0.019,0.016 0.036,0.034 0.055,0.047c0.005,0.006 0.01,0.008 0.013,0.014c0.508,0.444 1.032,0.873 1.565,1.294c0.118,0.09 0.235,0.185 0.355,0.277c0.534,0.409 1.078,0.812 1.637,1.195c0.017,0.012 0.031,0.023 0.047,0.037c0.246,0.169 0.498,0.328 0.747,0.491c0.12,0.078 0.234,0.161 0.354,0.234c0.398,0.255 0.802,0.504 1.213,0.743c0.058,0.036 0.115,0.065 0.171,0.099c0.354,0.204 0.713,0.405 1.073,0.6c0.125,0.071 0.253,0.133 0.381,0.199c0.249,0.13 0.497,0.262 0.75,0.389c0.037,0.018 0.076,0.035 0.113,0.051c0.515,0.254 1.035,0.498 1.565,0.729c0.113,0.05 0.23,0.095 0.346,0.143c0.423,0.18 0.852,0.355 1.282,0.521c0.183,0.069 0.367,0.135 0.55,0.202c0.39,0.145 0.783,0.277 1.178,0.41c0.179,0.057 0.354,0.115 0.533,0.17c0.562,0.174 1.117,0.395 1.703,0.492c30.176,5 37.144,-18.234 37.144,-18.234c-6.281,9.043 -18.442,13.36 -31.42,9.991c-0.576,-0.151 -1.144,-0.316 -1.708,-0.494c-0.173,-0.053 -0.343,-0.109 -0.514,-0.166c-0.401,-0.13 -0.8,-0.269 -1.196,-0.412c-0.181,-0.065 -0.362,-0.132 -0.54,-0.2c-0.434,-0.167 -0.862,-0.339 -1.287,-0.52c-0.116,-0.05 -0.233,-0.094 -0.347,-0.146c-0.533,-0.231 -1.057,-0.477 -1.575,-0.73c-0.266,-0.131 -0.527,-0.269 -0.789,-0.402c-0.151,-0.079 -0.304,-0.157 -0.456,-0.235c-0.336,-0.183 -0.67,-0.371 -1,-0.563c-0.078,-0.045 -0.159,-0.087 -0.238,-0.135c-0.409,-0.239 -0.812,-0.485 -1.21,-0.738c-0.123,-0.079 -0.241,-0.164 -0.364,-0.244c-0.263,-0.171 -0.526,-0.344 -0.784,-0.519c-0.556,-0.383 -1.098,-0.785 -1.631,-1.193c-0.123,-0.097 -0.247,-0.191 -0.367,-0.288c-5.681,-4.485 -10.183,-10.615 -12.324,-17.564c-2.244,-7.208 -1.761,-15.299 2.126,-21.865"/>
  <path id="svg_49" d="m56.138995,4.468759c-3.445,5.07 -3.784,11.368 -1.393,16.968c2.521,5.944 7.687,10.607 13.717,12.817c0.249,0.093 0.497,0.175 0.749,0.261c0.11,0.034 0.219,0.071 0.33,0.104c0.355,0.112 0.708,0.242 1.075,0.311c16.662,3.22 21.182,-8.551 22.385,-10.283c-3.959,5.7 -10.612,7.068 -18.775,5.087c-0.645,-0.158 -1.354,-0.39 -1.975,-0.61c-0.797,-0.284 -1.582,-0.608 -2.346,-0.974c-1.449,-0.697 -2.831,-1.542 -4.112,-2.509c-7.304,-5.542 -11.843,-16.116 -7.076,-24.727"/>
 </g>
</svg>